HIERARCHY
ROOT joint_Root
{
	OFFSET 0.0 0.0 0.0
	CHANNELS 6 Xposition Yposition Zposition Zrotation Xrotation Yrotation 
	JOINT Hips
	{
		OFFSET 4.5925 91.4895 -427.239
		CHANNELS 6 Xposition Yposition Zposition Zrotation Xrotation Yrotation 
		JOINT Spine
		{
			OFFSET 15.7357 0.0 0.0
			CHANNELS 6 Xposition Yposition Zposition Zrotation Xrotation Yrotation 
			JOINT Chest
			{
				OFFSET 8.98455 -0.406207 0.0
				CHANNELS 6 Xposition Yposition Zposition Zrotation Xrotation Yrotation 
				JOINT Neck
				{
					OFFSET 16.3773 0.0 0.0
					CHANNELS 6 Xposition Yposition Zposition Zrotation Xrotation Yrotation 
					JOINT Head
					{
						OFFSET 6.45672 0.0 0.0
						CHANNELS 6 Xposition Yposition Zposition Zrotation Xrotation Yrotation 
						End Site
						{
							OFFSET 0.0 0.0 0.0
						}
					}
				}
				JOINT Shoulder_L
				{
					OFFSET 12.9942 -0.242716 4.98039
					CHANNELS 6 Xposition Yposition Zposition Zrotation Xrotation Yrotation 
					JOINT UpperArm_L
					{
						OFFSET 5.34809 0.0 0.0
						CHANNELS 6 Xposition Yposition Zposition Zrotation Xrotation Yrotation 
						JOINT LowerArm_L
						{
							OFFSET 24.3286 1.87007e-05 0.0
							CHANNELS 6 Xposition Yposition Zposition Zrotation Xrotation Yrotation 
							JOINT Hand_L
							{
								OFFSET 22.2916 0.0 0.0
								CHANNELS 6 Xposition Yposition Zposition Zrotation Xrotation Yrotation 
								End Site
								{
									OFFSET 0.0 0.0 0.0
								}
							}
						}
					}
				}
				JOINT Shoulder_R
				{
					OFFSET 12.9945 -0.242716 -4.98039
					CHANNELS 6 Xposition Yposition Zposition Zrotation Xrotation Yrotation 
					JOINT UpperArm_R
					{
						OFFSET -5.34813 0.0 0.0
						CHANNELS 6 Xposition Yposition Zposition Zrotation Xrotation Yrotation 
						JOINT LowerArm_R
						{
							OFFSET -24.3289 0.000322201 0.0
							CHANNELS 6 Xposition Yposition Zposition Zrotation Xrotation Yrotation 
							JOINT Hand_R
							{
								OFFSET -22.2915 -0.000108084 0.0
								CHANNELS 6 Xposition Yposition Zposition Zrotation Xrotation Yrotation 
								End Site
								{
									OFFSET 0.0 0.0 0.0
								}
							}
						}
					}
				}
			}
		}
		JOINT UpperLeg_L
		{
			OFFSET -2.19248 -6.46944 0.0
			CHANNELS 6 Xposition Yposition Zposition Zrotation Xrotation Yrotation 
			JOINT LowerLeg_L
			{
				OFFSET 39.0811 0.0 -1.23785e-05
				CHANNELS 6 Xposition Yposition Zposition Zrotation Xrotation Yrotation 
				JOINT Foot_L
				{
					OFFSET 40.9854 0.0 -1.26872e-05
					CHANNELS 6 Xposition Yposition Zposition Zrotation Xrotation Yrotation 
					JOINT Toes_L
					{
						OFFSET 11.7543 0.0 0.0
						CHANNELS 6 Xposition Yposition Zposition Zrotation Xrotation Yrotation 
						End Site
						{
							OFFSET 0.0 0.0 0.0
						}
					}
				}
			}
		}
		JOINT UpperLeg_R
		{
			OFFSET -2.19251 6.46944 0.0
			CHANNELS 6 Xposition Yposition Zposition Zrotation Xrotation Yrotation 
			JOINT LowerLeg_R
			{
				OFFSET -39.0811 -0.00228153 -0.0401928
				CHANNELS 6 Xposition Yposition Zposition Zrotation Xrotation Yrotation 
				JOINT Foot_R
				{
					OFFSET -40.9854 0.0 0.0
					CHANNELS 6 Xposition Yposition Zposition Zrotation Xrotation Yrotation 
					JOINT Toes_R
					{
						OFFSET -11.7543 0.0 0.0
						CHANNELS 6 Xposition Yposition Zposition Zrotation Xrotation Yrotation 
						End Site
						{
							OFFSET 0.0 0.0 0.0
						}
					}
				}
			}
		}
	}
}
MOTION
Frames:	4
Frame Time:	0.0333333
0.000000 0.000000 0.000000 0.000000 0.000000 -0.000000 -120.742000 87.177500 188.088000 -71.910200 84.336700 160.229000 15.735700 0.000005 -0.000001 59.979600 83.656500 -58.020600 8.984550 -0.406207 -0.000000 3.349850 -6.415740 4.104820 16.377300 -0.000001 -0.000001 -1.828340 -3.526820 2.286510 6.456720 -0.000001 -0.000000 -10.543000 0.098590 2.287660 12.994200 -0.242716 4.980390 -90.730200 2.802680 -75.391000 5.348090 -0.000007 -0.000001 -46.658700 35.807300 -44.647000 24.328600 0.000019 0.000005 14.991200 8.561120 -60.930400 22.291600 -0.000001 0.000005 18.230800 5.387280 -2.528980 12.994500 -0.242716 -4.980390 87.708700 9.833810 -76.815500 -5.348130 -0.000001 -0.000004 -61.342100 14.509800 11.953300 -24.328900 0.000322 -0.000009 0.390240 5.382850 -4.163800 -22.291500 -0.000108 -0.000004 16.783600 5.235350 1.815630 -2.192480 -6.469440 -0.000000 -171.892000 -0.155353 6.723690 39.081100 -0.000007 -0.000012 0.019103 -0.025978 36.326700 40.985400 -0.000006 -0.000013 4.734180 10.152600 -65.187100 11.754300 -0.000000 0.000003 -0.208670 -0.659326 -44.901900 -2.192510 6.469440 -0.000001 -174.658000 16.430400 147.224000 -39.081100 -0.002282 -0.040193 0.049936 -0.046915 44.850900 -40.985400 0.000008 0.000006 8.039030 1.460690 -65.414000 -11.754300 -0.000006 -0.000006 -0.009344 -0.098668 -20.592400
0.000000 0.000000 0.000000 0.000000 0.000000 -0.000000 -115.674000 86.285400 189.193000 -76.779800 83.964600 167.276000 15.735700 0.000005 -0.000001 61.357100 83.432500 -59.294000 8.984550 -0.406207 -0.000000 3.899520 -6.357180 4.341690 16.377300 -0.000001 -0.000001 -1.133970 -3.704970 2.087460 6.456720 -0.000001 -0.000000 -9.213460 -0.181040 2.767680 12.994200 -0.242716 4.980390 -90.917000 3.503250 -75.321500 5.348090 -0.000007 -0.000001 -47.881000 38.031600 -41.865500 24.328600 0.000019 0.000005 17.427500 10.618700 -59.588200 22.291600 -0.000001 0.000005 17.387600 5.387840 -2.545340 12.994500 -0.242716 -4.980390 87.314700 10.889000 -76.057000 -5.348130 -0.000001 -0.000004 -59.908700 13.710600 11.567900 -24.328900 0.000322 -0.000009 0.223247 6.090860 -2.114160 -22.291500 -0.000108 -0.000004 16.967600 5.195710 2.825950 -2.192480 -6.469440 -0.000000 -171.186000 -0.205410 6.442440 39.081100 -0.000007 -0.000012 0.052870 -0.054607 44.073000 40.985400 -0.000006 -0.000013 5.509640 10.249300 -58.009400 11.754300 -0.000000 0.000003 -0.262924 -0.740650 -48.866400 -2.192510 6.469440 -0.000001 -175.444000 16.521800 150.845000 -39.081100 -0.002282 -0.040193 0.096151 -0.078312 49.871300 -40.985400 0.000008 0.000006 9.319870 -0.313377 -71.763300 -11.754300 -0.000006 -0.000006 -0.003828 -0.049634 -18.592000
0.000000 0.000000 0.000000 0.000000 0.000000 -0.000000 -111.007000 85.843000 190.255000 -76.149700 83.746300 168.789000 15.735700 0.000005 -0.000001 64.418700 83.124200 -62.043900 8.984550 -0.406207 -0.000000 4.787320 -5.988540 4.998380 16.377300 -0.000001 -0.000001 -0.782830 -3.911360 2.304730 6.456720 -0.000001 -0.000000 -8.385560 -0.302561 2.983770 12.994200 -0.242716 4.980390 -91.017200 3.867160 -75.250700 5.348090 -0.000007 -0.000001 -51.754300 40.023100 -37.643700 24.328600 0.000019 0.000005 18.692200 13.330400 -55.728900 22.291600 -0.000001 0.000005 17.205700 5.383680 -2.414310 12.994500 -0.242716 -4.980390 87.156100 11.263800 -75.730900 -5.348130 -0.000001 -0.000004 -59.500000 12.896300 9.909620 -24.328900 0.000322 -0.000009 0.153564 6.863480 -1.293550 -22.291500 -0.000108 -0.000004 16.416700 5.150270 3.938730 -2.192480 -6.469440 -0.000000 -170.882000 0.817206 3.732020 39.081100 -0.000007 -0.000012 0.064331 -0.047258 53.696300 40.985400 -0.000006 -0.000013 4.163270 7.782350 -48.270800 11.754300 -0.000000 0.000003 -0.120592 -0.493028 -37.266600 -2.192510 6.469440 -0.000001 -175.821000 18.418800 155.846000 -39.081100 -0.002282 -0.040193 0.131300 -0.100914 51.761200 -40.985400 0.000008 0.000006 10.457900 0.084640 -76.382500 -11.754300 -0.000006 -0.000006 -0.002214 -0.031359 -17.848300
0.000000 0.000000 0.000000 0.000000 0.000000 -0.000000 -107.058000 85.830500 191.134000 -74.006800 84.200300 167.899000 15.735700 0.000005 -0.000001 69.018600 83.050000 -66.380500 8.984550 -0.406207 -0.000000 5.349900 -5.021750 5.507650 16.377300 -0.000001 -0.000001 -0.712016 -4.004850 2.763680 6.456720 -0.000001 -0.000000 -7.974430 -0.671445 3.667480 12.994200 -0.242716 4.980390 -91.068900 4.061140 -75.241400 5.348090 -0.000007 -0.000001 -56.687400 41.594300 -33.138400 24.328600 0.000019 0.000005 16.785000 15.646700 -48.194900 22.291600 -0.000001 0.000005 17.404100 5.369000 -1.955330 12.994500 -0.242716 -4.980390 87.109100 11.572900 -75.871000 -5.348130 -0.000001 -0.000004 -59.701300 12.729800 7.392930 -24.328900 0.000322 -0.000009 0.225426 6.462550 -2.012850 -22.291500 -0.000108 -0.000004 15.197500 5.146570 4.023130 -2.192480 -6.469440 -0.000000 -171.182000 1.106270 -1.514350 39.081100 -0.000007 -0.000012 0.063953 -0.032402 63.127500 40.985400 -0.000006 -0.000013 2.425850 2.243430 -38.511600 11.754300 -0.000000 0.000003 -0.008478 -0.091898 -20.319500 -2.192510 6.469440 -0.000001 -176.289000 19.494600 160.550000 -39.081100 -0.002282 -0.040193 0.127346 -0.098956 51.432400 -40.985400 0.000008 0.000006 10.983000 0.995994 -79.136000 -11.754300 -0.000006 -0.000006 -0.001390 -0.020807 -17.419200
